<?xml version="1.0" encoding="UTF-8"?><svg id="a" xmlns="http://www.w3.org/2000/svg" viewBox="0 0 500 330"><path d="M469.5,279v25.8c0,4.4-3.6,8-8,8h-8.3c4.4,0,8-3.6,8-8v-25.8c0-4.4-3.6-8-8-8h8.3c4.4,0,8,3.6,8,8Z" fill="#262626"/><path d="M469.5,162.6v83c0,4.4-3.6,8-8,8h-8.3c4.4,0,8-3.6,8-8v-83c0-4.4-3.6-8-8-8h8.3c4.4,0,8,3.6,8,8Z" fill="#262626"/><path d="M469.5,104.1v25.8c0,4.4-3.6,8-8,8h-8.3c4.4,0,8-3.6,8-8v-25.8c0-4.4-3.6-8-8-8h8.3c4.4,0,8,3.6,8,8Z" fill="#262626"/><path d="M380,162.6v25.4c0,4.4-3.6,8-8,8h-8.3c4.4,0,8-3.6,8-8v-25.4c0-4.4-3.6-8-8-8h8.3c4.4,0,8,3.6,8,8Z" fill="#262626"/><path d="M325.8,220.6v25.4c0,4.4-3.6,8-8,8h-8.3c4.4,0,8-3.6,8-8v-25.4c0-4.4-3.6-8-8-8h8.3c4.4,0,8,3.6,8,8Z" fill="#262626"/><path d="M499.9,92.1v224.8c0,7-5.6,12.6-12.6,12.6h-16.7c7,0,12.6-5.6,12.6-12.6V92.1c0-7-5.6-12.6-12.6-12.6h16.7c7,0,12.6,5.6,12.6,12.6Z" fill="#262626"/><rect x="244.5" y="96.1" width="216.7" height="216.7" rx="8" ry="8" fill="none"/><rect x="227.9" y="79.5" width="255.3" height="250" rx="12.6" ry="12.6" fill="none" stroke="#aaa8a1" stroke-width=".5"/><path d="M252.7,96.1h200.7c4.4,0,8,3.6,8,8v25.8c0,4.4-3.6,8-8,8h-200.7c-4.4,0-8-3.6-8-8v-25.8c0-4.4,3.6-8,8-8Z" fill="none" stroke="#aaa8a1" stroke-width=".5"/><path d="M252.7,271h200.7c4.4,0,8,3.6,8,8v25.8c0,4.4-3.6,8-8,8h-200.7c-4.4,0-8-3.6-8-8v-25.8c0-4.4,3.6-8,8-8Z" fill="none" stroke="#aaa8a1" stroke-width=".5"/><path d="M252.7,212.6h56.9c4.4,0,8,3.6,8,8v25.4c0,4.4-3.6,8-8,8h-56.9c-4.4,0-8-3.6-8-8v-25.4c0-4.4,3.6-8,8-8Z" fill="none" stroke="#aaa8a1" stroke-width=".5"/><path d="M252.7,154.6h111.1c4.4,0,8,3.6,8,8v25.4c0,4.4-3.6,8-8,8h-111.1c-4.4,0-8-3.6-8-8v-25.4c0-4.4,3.6-8,8-8Z" fill="none" stroke="#aaa8a1" stroke-width=".5"/><path d="M380.5,212.2h-38.2c-4.4,0-8,3.6-8,8v25.4c0,4.4,3.6,8,8,8h111.1c4.4,0,8-3.6,8-8v-83c0-4.4-3.6-8-8-8h-56.9c-4.4,0-8,3.6-8,8v41.6c0,4.4-3.6,8-8,8Z" fill="none" stroke="#aaa8a1" stroke-width=".5"/><line x1="227.6" y1="204.5" x2="221.7" y2="204.5" fill="none" stroke="#595959" stroke-width=".8"/><path d="M221.7,204.5h-68.7c-6.6,0-12-5.4-12-12V12.9" fill="none" stroke="#aaa8a1" stroke-width=".5"/><line x1="141.1" y1="12.9" x2="141.1" fill="none" stroke="#595959" stroke-width=".8"/></svg>