<?xml version="1.0" encoding="UTF-8"?><svg id="a" xmlns="http://www.w3.org/2000/svg" viewBox="0 0 500 282.1"><path d="M300.4,14.6v252.9c0,7.8-6.3,14.2-14.2,14.2h-18.8c7.8,0,14.2-6.3,14.2-14.2V14.6c0-7.8-6.3-14.2-14.2-14.2h18.8c7.8,0,14.2,6.3,14.2,14.2Z" fill="#262626"/><path d="M28.1,19.2h9.4c-5,0-9,4-9,9v187.3c0,5,4,9,9,9h-9.4c-5,0-9-4-9-9V28.2c0-5,4-9,9-9Z" fill="#262626"/><rect x=".4" y=".5" width="281.3" height="281.3" rx="14.2" ry="14.2" fill="none" stroke="#aaa8a1" stroke-width=".5"/><rect x="19.1" y="19.2" width="243.8" height="205.3" rx="9" ry="9" fill="none" stroke="#aaa8a1" stroke-width=".5"/><circle cx="141" cy="252.6" r="9.3" fill="#262626" stroke="#aaa8a1" stroke-width=".5"/></svg>